/* XPM */
static char * icon_xpm[] = {
"64 64 22 1",
" 	c #3A3839",
".	c #C1C1C1",
"+	c #464445",
"@	c #848384",
"#	c #FFFFFF",
"$	c #DADADA",
"%	c #6B6A6B",
"&	c #A8A8A8",
"*	c #9D9C9C",
"=	c #5E5D5D",
"-	c #F3F3F3",
";	c #CCCCCC",
">	c #535152",
",	c #B6B5B5",
"'	c #918F90",
")	c #E6E6E6",
"!	c #777676",
"~	c #C2C1C2",
"{	c #ADA5AD",
"]	c #5F5D5E",
"^	c #948C94",
"/	c #787677",
"################################################################",
"################################################################",
"################################################################",
"################################################################",
"################################################################",
"################################################################",
"################################################################",
"################################################################",
"################################################################",
"################################################################",
"################################################################",
"################################################################",
"################################################################",
"################################################################",
"################################################################",
"###################################;;;;;;;;;;;;;;)$;;;;;;;;;;;;$",
"################-;#################              *%            $",
"###########$+         @############              *%           $#",
"#########>              >##########              *%         +$##",
"#######.                  +########              *%        +####",
"######@                     #######              *%       ]#####",
"#####                        ######              *%      ]######",
"####*                        '#####              *%      -######",
"###-                          )####              *%    ]-#######",
"###                            ;###              *%   ]#########",
"##;                             ###              *%  ]##########",
"##                              $##              *% ]###########",
"##                              >##              *%]############",
"#)                               ##              *,-############",
"#'                               ##              *##############",
"#>                               ##              *%        #####",
"#                                ##              *%        #####",
"#                                ##              *%        #####",
"#                                ##              *%        #####",
"#]                               ##              *%        #####",
"#*                               ##              *%        #####",
"#-                               ##              *%        #####",
"##                              &##              *%        #####",
"##@                             ###              *%        #####",
"###                            %###              *##############",
"###+                           )###              *##############",
"####                          -####              *##############",
"####.                        ,#####              *##############",
"#####,                      &######              *##############",
"#######+                   .#######              *##############",
"########&                &#########              *##############",
"#########@              @##########              *##############",
"############@        +~############              *##############",
"################################################################",
"################################################################",
"################################################################",
"################################################################",
"################################################################",
"################################################################",
"################################################################",
"################################################################",
"################################################################",
"################################################################",
"################################################################",
"################################################################",
"################################################################",
"################################################################",
"################################################################",
"################################################################"};
